<svg width="883" height="712" viewBox="0 0 883 712" fill="none" xmlns="http://www.w3.org/2000/svg">
<g clip-path="url(#clip0)">
<path d="M797.98 171.91H617.04C611.539 171.91 607.08 176.369 607.08 181.87V183.64C607.08 189.141 611.539 193.6 617.04 193.6H797.98C803.481 193.6 807.94 189.141 807.94 183.64V181.87C807.94 176.369 803.481 171.91 797.98 171.91Z" fill="#F2F2F2"/>
<path d="M842.97 190.39H662.03C656.529 190.39 652.07 194.849 652.07 200.35V202.12C652.07 207.621 656.529 212.08 662.03 212.08H842.97C848.471 212.08 852.93 207.621 852.93 202.12V200.35C852.93 194.849 848.471 190.39 842.97 190.39Z" fill="#F2F2F2"/>
<path d="M766.64 206.46H585.7C580.199 206.46 575.74 210.919 575.74 216.42V218.19C575.74 223.691 580.199 228.15 585.7 228.15H766.64C772.141 228.15 776.6 223.691 776.6 218.19V216.42C776.6 210.919 772.141 206.46 766.64 206.46Z" fill="#F2F2F2"/>
<g opacity="0.5">
<path opacity="0.5" d="M852.5 686.15C847.68 686.15 736.8 734.36 608.25 607.41C538.44 538.48 470.06 531.14 422.14 538.83C392.69 543.55 365.8 557.93 344.5 578.76C327.37 595.58 285.91 618.5 188.77 612.24C39.33 602.6 -0.039978 709.46 -0.039978 709.46H882.96C882.96 709.46 857.29 686.15 852.5 686.15Z" fill="url(#paint0_linear)"/>
</g>
<path d="M0 711.86C0 711.86 39.37 605 188.81 614.64C285.95 620.93 327.42 597.98 344.5 581.17C365.76 560.3 392.64 545.96 422.06 541.24C469.98 533.55 538.37 540.89 608.17 609.82C736.72 736.77 847.6 688.56 852.42 688.56C857.24 688.56 882.95 711.86 882.95 711.86H0Z" fill="#F2F2F2"/>
<path opacity="0.02" d="M0 711.86C0 711.86 39.37 605 188.81 614.64C285.95 620.93 327.42 597.98 344.5 581.17C365.76 560.3 392.64 545.96 422.06 541.24C469.98 533.55 538.37 540.89 608.17 609.82C736.72 736.77 847.6 688.56 852.42 688.56C857.24 688.56 882.95 711.86 882.95 711.86H0Z" fill="black"/>
<path d="M253.23 270.73H72.29C66.7892 270.73 62.33 275.189 62.33 280.69V282.46C62.33 287.961 66.7892 292.42 72.29 292.42H253.23C258.731 292.42 263.19 287.961 263.19 282.46V280.69C263.19 275.189 258.731 270.73 253.23 270.73Z" fill="#F2F2F2"/>
<path d="M298.23 289.21H117.29C111.789 289.21 107.33 293.669 107.33 299.17V300.94C107.33 306.441 111.789 310.9 117.29 310.9H298.23C303.731 310.9 308.19 306.441 308.19 300.94V299.17C308.19 293.669 303.731 289.21 298.23 289.21Z" fill="#F2F2F2"/>
<path d="M221.9 305.28H40.96C35.4592 305.28 31 309.739 31 315.24V317.01C31 322.511 35.4592 326.97 40.96 326.97H221.9C227.401 326.97 231.86 322.511 231.86 317.01V315.24C231.86 309.739 227.401 305.28 221.9 305.28Z" fill="#F2F2F2"/>
<g opacity="0.5">
<path opacity="0.5" d="M170 309.3C214.818 309.3 251.15 272.968 251.15 228.15C251.15 183.332 214.818 147 170 147C125.182 147 88.85 183.332 88.85 228.15C88.85 272.968 125.182 309.3 170 309.3Z" fill="url(#paint1_linear)"/>
</g>
<path d="M170 300.46C209.936 300.46 242.31 268.086 242.31 228.15C242.31 188.214 209.936 155.84 170 155.84C130.064 155.84 97.69 188.214 97.69 228.15C97.69 268.086 130.064 300.46 170 300.46Z" fill="#FCCC63"/>
<path d="M223.88 590.63H160.98V637.36H223.88V590.63Z" fill="#6C63FF"/>
<path d="M155.5 588.73L190.65 553.58C190.905 553.325 191.207 553.122 191.54 552.984C191.873 552.846 192.23 552.775 192.59 552.775C192.95 552.775 193.307 552.846 193.64 552.984C193.973 553.122 194.275 553.325 194.53 553.58L229.4 588.45C229.784 588.833 230.045 589.32 230.152 589.852C230.258 590.383 230.205 590.934 229.998 591.435C229.792 591.935 229.441 592.364 228.991 592.666C228.541 592.967 228.012 593.129 227.47 593.13L157.47 593.41C156.925 593.417 156.39 593.261 155.934 592.962C155.478 592.664 155.121 592.236 154.909 591.733C154.698 591.231 154.641 590.676 154.746 590.141C154.851 589.606 155.114 589.115 155.5 588.73V588.73Z" fill="#6C63FF"/>
<path opacity="0.05" d="M155.5 588.73L190.65 553.58C190.905 553.325 191.207 553.122 191.54 552.984C191.873 552.846 192.23 552.775 192.59 552.775C192.95 552.775 193.307 552.846 193.64 552.984C193.973 553.122 194.275 553.325 194.53 553.58L229.4 588.45C229.784 588.833 230.045 589.32 230.152 589.852C230.258 590.383 230.205 590.934 229.998 591.435C229.792 591.935 229.441 592.364 228.991 592.666C228.541 592.967 228.012 593.129 227.47 593.13L157.47 593.41C156.925 593.417 156.39 593.261 155.934 592.962C155.478 592.664 155.121 592.236 154.909 591.733C154.698 591.231 154.641 590.676 154.746 590.141C154.851 589.606 155.114 589.115 155.5 588.73V588.73Z" fill="black"/>
<path d="M191.62 616.28H192.88C194.763 616.28 196.569 617.028 197.9 618.36C199.232 619.691 199.98 621.497 199.98 623.38V637.38H184.52V623.38C184.52 621.497 185.268 619.691 186.6 618.36C187.931 617.028 189.737 616.28 191.62 616.28V616.28Z" fill="white"/>
<path d="M192.6 566.04C194.737 566.04 196.47 564.307 196.47 562.17C196.47 560.033 194.737 558.3 192.6 558.3C190.463 558.3 188.73 560.033 188.73 562.17C188.73 564.307 190.463 566.04 192.6 566.04Z" fill="white"/>
<path d="M180.66 596.6H165.9V607.84H180.66V596.6Z" fill="white"/>
<path d="M173.98 596.6H172.57V607.84H173.98V596.6Z" fill="#6C63FF"/>
<path d="M220.01 596.6H205.25V607.84H220.01V596.6Z" fill="white"/>
<path d="M213.34 596.6H211.93V607.84H213.34V596.6Z" fill="#6C63FF"/>
<g opacity="0.2">
<path opacity="0.2" d="M452.5 541.15C452.37 541.12 452.5 541.15 452.5 541.15V541.15Z" fill="url(#paint2_linear)"/>
</g>
<g opacity="0.2">
<path opacity="0.2" d="M453.95 570.19H454.07C454.095 570.181 454.117 570.164 454.132 570.143C454.148 570.122 454.158 570.096 454.16 570.07C454.168 570.03 454.168 569.99 454.16 569.95V569.85C454.06 569.61 453.83 569.29 453.7 569.01L453.64 568.86C453.634 568.793 453.634 568.727 453.64 568.66C453.64 568.66 453.64 568.6 453.64 568.57L455.8 561.48L455.85 561.31C455.85 561.31 458.6 562.49 459.31 564.85C459.719 565.995 459.74 567.242 459.37 568.4L459.32 568.52H459.37V569.82H462.37C462.58 569.72 462.3 569.46 462.02 569.2L461.95 569.13L461.77 568.94C461.719 568.882 461.675 568.818 461.64 568.75L461.59 568.63V568.56H461.5V568.45C461.875 566.713 461.79 564.908 461.253 563.214C460.716 561.519 459.747 559.995 458.44 558.79V558.79C459.163 556.632 459.163 554.298 458.44 552.14C458.72 551.94 464.17 548 464.13 542.9C464.146 542.627 464.146 542.353 464.13 542.08C464.13 542.08 464.6 541.69 464.13 540.98V540.92H464.08H463.75C463.534 540.941 463.326 541.009 463.14 541.12C463.14 541.12 462.83 542.12 463.14 542.38H463.06C463.06 542.38 459.83 549.38 457.67 550.38L457.52 550.29V549.38C457.522 549.34 457.522 549.3 457.52 549.26V549.26C457.522 549.223 457.522 549.187 457.52 549.15C457.762 549.024 457.982 548.858 458.17 548.66V548.66C458.242 548.584 458.309 548.504 458.37 548.42V548.42L458.45 548.3L458.53 548.16L458.59 548.03C458.633 547.936 458.67 547.839 458.7 547.74V547.62V547.47C458.7 547.47 458.7 547.39 458.7 547.35C458.7 547.3 458.7 547.25 458.7 547.19C458.7 546.903 458.649 546.619 458.55 546.35C458.55 546.277 458.52 546.203 458.46 546.13L458.41 546.02L458.34 545.9C458.394 545.833 458.458 545.776 458.53 545.73C458.669 545.652 458.822 545.604 458.98 545.59H459.37H459.45C459.507 545.567 459.561 545.537 459.61 545.5C459.686 545.436 459.775 545.388 459.87 545.36H459.28H459.19H459.11H459.02H458.94H458.86H458.78H458.7H458.62L458.46 545.29C458.543 545.323 458.631 545.344 458.72 545.35H459.06H459.12L459.18 545.3V545.22H459.07H459C458.864 545.238 458.726 545.238 458.59 545.22H458.3H458.17L458.05 545.17C458.214 545.23 458.396 545.222 458.554 545.148C458.713 545.073 458.835 544.939 458.895 544.775C458.955 544.611 458.947 544.429 458.872 544.271C458.798 544.112 458.664 543.99 458.5 543.93L458.61 543.86C458.725 543.761 458.797 543.621 458.81 543.47C458.824 543.407 458.824 543.343 458.81 543.28L458.74 543.34H458.68C458.491 543.473 458.261 543.537 458.03 543.52H457.95C457.746 543.468 457.548 543.394 457.36 543.3L457.19 543.24H457.14H457H456.92H456.81H456.28C455.533 543.265 454.821 543.564 454.28 544.08C454.155 544.203 454.041 544.337 453.94 544.48C453.867 543.747 454.003 543.009 454.33 542.35H454.27H454.09L454 542.52C454.047 542.279 454.139 542.048 454.27 541.84H454.21C454.343 541.691 454.416 541.499 454.416 541.3C454.416 541.101 454.343 540.909 454.21 540.76C453.74 540.05 452.87 540.6 452.87 540.6C452.8 540.831 452.753 541.069 452.73 541.31L452.59 541.25C452.43 541.79 450.65 547.99 453.59 551.95C453.586 552.033 453.586 552.117 453.59 552.2V558.88L451.59 568.04L451.2 569.77L454.01 570.23L453.95 570.19ZM454.45 548.54C454.609 548.671 454.783 548.782 454.97 548.87C454.964 548.933 454.964 548.997 454.97 549.06V549.93L454.8 550.01C454.67 549.58 454.56 549.08 454.44 548.54H454.45Z" fill="url(#paint3_linear)"/>
</g>
<path d="M464.16 542.86C464.16 542.86 464.68 542.42 464.16 541.64C463.64 540.86 462.68 541.47 462.68 541.47C462.68 541.47 462.33 542.6 462.68 542.86C463.03 543.12 464.16 542.86 464.16 542.86Z" fill="#CA7070"/>
<path d="M458.78 572.02H461.18C461.171 572.134 461.187 572.248 461.227 572.355C461.267 572.462 461.329 572.559 461.41 572.64C461.73 573.01 462.41 573.46 462.08 573.64H458.78V572.02Z" fill="#00695C"/>
<path opacity="0.2" d="M461.23 572.64C461.149 572.559 461.087 572.462 461.047 572.355C461.007 572.248 460.991 572.134 461 572.02H461.17C461.161 572.134 461.177 572.248 461.217 572.355C461.257 572.462 461.319 572.559 461.4 572.64C461.72 573.01 462.4 573.46 462.07 573.64H461.9C462.2 573.46 461.55 573.01 461.23 572.64Z" fill="white"/>
<path d="M450.22 571.53L452.5 571.93C452.438 572.197 452.474 572.477 452.6 572.72C452.85 573.23 453.4 573.89 453.07 574.03L449.82 573.5L450.22 571.53Z" fill="#00695C"/>
<path d="M451.32 541.8C451.32 541.8 448.75 549.91 453.06 554.4L454.31 553.4C454.31 553.4 451.76 544.55 453.19 542.47C450.67 541.68 451.32 541.8 451.32 541.8Z" fill="#00695C"/>
<path d="M453.1 542.51C453.1 542.51 453.62 542.07 453.1 541.29C452.58 540.51 451.62 541.12 451.62 541.12C451.62 541.12 451.27 542.25 451.62 542.51C451.97 542.77 453.1 542.51 453.1 542.51Z" fill="#CA7070"/>
<path opacity="0.2" d="M452.4 572.68C452.274 572.437 452.238 572.157 452.3 571.89L450.22 571.55L452.5 571.93C452.438 572.197 452.474 572.477 452.6 572.72C452.85 573.23 453.4 573.89 453.07 574.03H452.93C453.15 573.79 452.64 573.17 452.4 572.68Z" fill="white"/>
<path d="M455.14 552.97H455.34C455.959 552.97 456.46 552.469 456.46 551.85V550.47C456.46 549.851 455.959 549.35 455.34 549.35H455.14C454.521 549.35 454.02 549.851 454.02 550.47V551.85C454.02 552.469 454.521 552.97 455.14 552.97Z" fill="#CA7070"/>
<path opacity="0.2" d="M454.13 553.93C454.13 553.93 451.61 545.19 452.98 543.04H453.18H453.24C451.81 545.12 454.36 553.97 454.36 553.97L453.11 554.97L453 554.85L454.13 553.93Z" fill="white"/>
<path d="M455.19 550.62C456.681 550.62 457.89 549.411 457.89 547.92C457.89 546.429 456.681 545.22 455.19 545.22C453.699 545.22 452.49 546.429 452.49 547.92C452.49 549.411 453.699 550.62 455.19 550.62Z" fill="#CA7070"/>
<path opacity="0.2" d="M456.15 551.75V550.57C456.159 550.484 456.159 550.396 456.15 550.31C456.678 550.04 457.103 549.603 457.358 549.068C457.614 548.532 457.685 547.927 457.562 547.346C457.44 546.766 457.129 546.242 456.678 545.856C456.228 545.47 455.663 545.243 455.07 545.21H455.22C455.826 545.209 456.414 545.412 456.89 545.786C457.367 546.16 457.704 546.684 457.847 547.272C457.99 547.861 457.931 548.48 457.679 549.031C457.428 549.582 456.998 550.032 456.46 550.31C456.469 550.396 456.469 550.484 456.46 550.57V551.75C456.46 552.074 456.331 552.384 456.103 552.613C455.874 552.841 455.564 552.97 455.24 552.97H455.09C455.385 552.931 455.656 552.785 455.851 552.561C456.046 552.336 456.153 552.048 456.15 551.75V551.75Z" fill="white"/>
<path d="M452.45 561.38C452.45 561.38 457.66 561.97 457.85 561.38C458.666 558.977 458.666 556.373 457.85 553.97C457.85 553.615 457.78 553.264 457.644 552.937C457.509 552.609 457.31 552.312 457.059 552.061C456.808 551.81 456.511 551.611 456.183 551.476C455.856 551.34 455.505 551.27 455.15 551.27V551.27C454.434 551.27 453.747 551.554 453.241 552.061C452.734 552.567 452.45 553.254 452.45 553.97V561.38Z" fill="#00695C"/>
<path d="M452.45 561.38L450.1 572.18H452.45L454.89 564.18C454.89 564.18 457.89 565.49 458.72 568.1C459.223 569.417 459.223 570.873 458.72 572.19H461.25V572.07C461.668 570.145 461.572 568.143 460.971 566.267C460.371 564.391 459.288 562.705 457.83 561.38" fill="#263238"/>
<path opacity="0.2" d="M457.5 561.38C458.316 558.977 458.316 556.373 457.5 553.97C457.499 553.284 457.237 552.624 456.767 552.125C456.297 551.625 455.654 551.323 454.97 551.28H455.14C455.856 551.28 456.543 551.565 457.049 552.071C457.556 552.577 457.84 553.264 457.84 553.98C458.656 556.383 458.656 558.987 457.84 561.39C457.77 561.6 457.06 561.66 456.17 561.65C456.94 561.63 457.5 561.56 457.5 561.38Z" fill="white"/>
<path d="M457.89 553.93C457.89 553.93 464.89 549.05 464.16 542.87H462.6C462.6 542.87 458.85 550.97 456.46 551.76C454.07 552.55 457.89 553.93 457.89 553.93Z" fill="#00695C"/>
<g opacity="0.2">
<path opacity="0.2" d="M454.84 564.35L452.45 572.22H452.1L454.54 564.22L454.84 564.35Z" fill="white"/>
<path opacity="0.2" d="M457.5 561.42H457.85C459.308 562.745 460.391 564.431 460.991 566.307C461.592 568.183 461.688 570.185 461.27 572.11V572.23H460.92V572.11C461.338 570.185 461.242 568.183 460.641 566.307C460.041 564.431 458.958 562.745 457.5 561.42Z" fill="white"/>
</g>
<path opacity="0.2" d="M463.9 542.93H464.16C464.86 549.12 457.89 553.99 457.89 553.99L457.72 553.92C458.5 553.35 464.55 548.72 463.9 542.93Z" fill="white"/>
<path d="M457.34 546.71C457.191 547.059 457.087 547.425 457.03 547.8C456.961 548.183 456.815 548.549 456.602 548.875C456.389 549.202 456.113 549.482 455.79 549.7C455.418 549.902 455.003 550.015 454.58 550.03C454.26 550.07 453.936 550.042 453.628 549.949C453.32 549.856 453.034 549.7 452.79 549.49C452.507 549.182 452.316 548.801 452.24 548.39C452.106 547.779 452.127 547.143 452.301 546.542C452.476 545.941 452.799 545.394 453.24 544.95C453.688 544.517 454.25 544.218 454.86 544.089C455.47 543.96 456.104 544.005 456.69 544.22C456.901 544.323 457.122 544.404 457.35 544.46C457.53 544.495 457.716 544.484 457.891 544.428C458.066 544.372 458.224 544.273 458.35 544.14C458.378 544.23 458.385 544.326 458.369 544.42C458.353 544.513 458.316 544.602 458.259 544.678C458.203 544.754 458.129 544.816 458.044 544.858C457.959 544.9 457.865 544.921 457.77 544.92C457.97 545.016 458.187 545.072 458.408 545.084C458.629 545.096 458.851 545.064 459.06 544.99C458.942 545.239 458.734 545.434 458.478 545.536C458.222 545.639 457.937 545.64 457.68 545.54C458.17 545.759 458.703 545.868 459.24 545.86C459.13 545.86 458.91 546.07 458.77 546.11C458.597 546.125 458.423 546.125 458.25 546.11C458.057 546.111 457.868 546.169 457.706 546.275C457.545 546.382 457.417 546.533 457.34 546.71Z" fill="#263238"/>
<g opacity="0.2">
<path opacity="0.2" d="M457.7 544.93C457.901 545.025 458.118 545.08 458.34 545.09C458.051 545.11 457.762 545.055 457.5 544.93C457.584 544.93 457.668 544.913 457.746 544.879C457.823 544.846 457.893 544.796 457.95 544.734C458.007 544.672 458.051 544.599 458.079 544.519C458.106 544.439 458.117 544.354 458.11 544.27L458.25 544.15C458.278 544.238 458.285 544.331 458.271 544.423C458.256 544.514 458.221 544.601 458.168 544.676C458.115 544.752 458.045 544.814 457.964 544.858C457.883 544.902 457.792 544.927 457.7 544.93V544.93Z" fill="white"/>
<path opacity="0.2" d="M457.16 544.46C456.932 544.404 456.711 544.323 456.5 544.22C456.181 544.093 455.843 544.022 455.5 544.01C455.913 543.996 456.325 544.067 456.71 544.22C456.921 544.323 457.142 544.404 457.37 544.46H457.46C457.361 544.475 457.259 544.475 457.16 544.46V544.46Z" fill="white"/>
<path opacity="0.2" d="M458.5 546.11C458.64 546.11 458.86 545.86 458.97 545.86C458.433 545.868 457.9 545.759 457.41 545.54C457.521 545.584 457.64 545.608 457.76 545.61C458.204 545.779 458.676 545.86 459.15 545.85C459.04 545.85 458.82 546.06 458.68 546.1C458.561 546.119 458.439 546.119 458.32 546.1L458.5 546.11Z" fill="white"/>
<path opacity="0.2" d="M454.4 550.03C454.823 550.015 455.238 549.902 455.61 549.7C455.933 549.482 456.209 549.202 456.422 548.875C456.635 548.549 456.781 548.183 456.85 547.8C456.907 547.425 457.011 547.059 457.16 546.71C457.239 546.549 457.359 546.412 457.508 546.314C457.658 546.215 457.831 546.159 458.01 546.15H458.18C458.001 546.159 457.828 546.215 457.678 546.314C457.529 546.412 457.409 546.549 457.33 546.71C457.181 547.059 457.077 547.425 457.02 547.8C456.951 548.183 456.805 548.549 456.592 548.875C456.379 549.202 456.103 549.482 455.78 549.7C455.408 549.902 454.993 550.015 454.57 550.03H454.4Z" fill="white"/>
<path opacity="0.2" d="M457.91 545.62C458.094 545.607 458.272 545.549 458.428 545.449C458.583 545.349 458.711 545.212 458.8 545.05L459 544.99C458.905 545.194 458.749 545.364 458.554 545.476C458.359 545.589 458.134 545.639 457.91 545.62V545.62Z" fill="white"/>
</g>
<path opacity="0.2" d="M463.99 542.86C463.99 542.86 464.51 542.42 463.99 541.64C463.922 541.526 463.827 541.43 463.714 541.361C463.601 541.291 463.472 541.25 463.34 541.24C463.501 541.222 463.663 541.25 463.808 541.321C463.953 541.392 464.075 541.502 464.16 541.64C464.68 542.42 464.16 542.86 464.16 542.86C463.832 542.932 463.496 542.969 463.16 542.97C463.439 542.956 463.717 542.919 463.99 542.86Z" fill="white"/>
<path d="M475.91 533.15C475.91 533.15 473.34 541.26 477.65 545.75L478.9 544.75C478.9 544.75 476.35 535.9 477.78 533.82C475.26 533.03 475.91 533.15 475.91 533.15Z" fill="#FF5252"/>
<path d="M477.69 533.87C477.69 533.87 478.21 533.43 477.69 532.65C477.17 531.87 476.21 532.48 476.21 532.48C476.21 532.48 475.86 533.61 476.21 533.87C476.56 534.13 477.69 533.87 477.69 533.87Z" fill="#F6B9AD"/>
<path d="M479.73 544.33H479.93C480.549 544.33 481.05 543.829 481.05 543.21V541.83C481.05 541.211 480.549 540.71 479.93 540.71H479.73C479.111 540.71 478.61 541.211 478.61 541.83V543.21C478.61 543.829 479.111 544.33 479.73 544.33Z" fill="#F6B9AD"/>
<path opacity="0.2" d="M478.72 545.32C478.72 545.32 476.2 536.58 477.57 534.43H477.77H477.83C476.4 536.51 478.95 545.36 478.95 545.36L477.7 546.36L477.59 546.24L478.72 545.32Z" fill="white"/>
<path d="M479.78 541.97C481.271 541.97 482.48 540.761 482.48 539.27C482.48 537.779 481.271 536.57 479.78 536.57C478.289 536.57 477.08 537.779 477.08 539.27C477.08 540.761 478.289 541.97 479.78 541.97Z" fill="#F6B9AD"/>
<path opacity="0.2" d="M480.74 543.1V541.93C480.749 541.844 480.749 541.756 480.74 541.67C481.268 541.4 481.693 540.963 481.948 540.428C482.204 539.892 482.275 539.287 482.153 538.707C482.03 538.126 481.719 537.602 481.268 537.216C480.818 536.83 480.252 536.603 479.66 536.57H479.81C480.416 536.569 481.004 536.772 481.48 537.146C481.957 537.52 482.294 538.044 482.437 538.632C482.58 539.221 482.521 539.84 482.269 540.391C482.018 540.942 481.588 541.393 481.05 541.67C481.059 541.756 481.059 541.844 481.05 541.93V543.11C481.05 543.434 480.921 543.744 480.693 543.973C480.464 544.202 480.154 544.33 479.83 544.33H479.68C479.977 544.291 480.249 544.144 480.444 543.917C480.64 543.69 480.745 543.399 480.74 543.1V543.1Z" fill="white"/>
<path d="M477.04 552.73C477.04 552.73 482.25 553.32 482.44 552.73C483.06 550.83 481.44 548.73 482.23 547.73C482.474 547.377 482.622 546.966 482.659 546.538C482.696 546.11 482.62 545.68 482.44 545.29C482.44 544.935 482.37 544.584 482.234 544.257C482.099 543.929 481.9 543.632 481.649 543.381C481.398 543.13 481.101 542.931 480.773 542.796C480.446 542.66 480.095 542.59 479.74 542.59V542.59C479.024 542.59 478.337 542.874 477.831 543.381C477.324 543.887 477.04 544.574 477.04 545.29V552.73Z" fill="#FF5252"/>
<path opacity="0.2" d="M482.24 547.77C482.484 547.417 482.632 547.006 482.669 546.578C482.706 546.15 482.63 545.72 482.45 545.33C482.45 544.614 482.166 543.927 481.659 543.421C481.153 542.914 480.466 542.63 479.75 542.63H479.58C480.265 542.673 480.907 542.975 481.377 543.475C481.847 543.974 482.109 544.634 482.11 545.32C482.29 545.71 482.366 546.14 482.329 546.568C482.292 546.996 482.144 547.407 481.9 547.76C481.06 548.76 482.73 550.82 482.11 552.76C482.05 552.94 481.51 553.01 480.8 553.02C481.68 553.02 482.39 552.97 482.46 552.76C483.07 550.83 481.4 548.77 482.24 547.77Z" fill="white"/>
<path d="M481.33 552.56C483.339 555.737 484.121 559.538 483.53 563.25V563.37H481.91C482.235 562.026 482.235 560.624 481.91 559.28C481.602 557.714 480.726 556.318 479.45 555.36L477.88 563.36H476.37L477.88 552.56H481.33Z" fill="#F6B9AD"/>
<path d="M490.5 537.02C490.5 537.02 491.13 536.76 490.86 535.85C490.59 534.94 489.5 535.25 489.5 535.25C489.5 535.25 488.83 536.25 489.09 536.58C489.35 536.91 490.5 537.02 490.5 537.02Z" fill="#F6B9AD"/>
<path d="M481.25 545.76C481.25 545.76 489.34 543.14 490.49 537.02L488.99 536.56C488.99 536.56 482.99 543.21 480.51 543.26C478.03 543.31 481.25 545.76 481.25 545.76Z" fill="#FF5252"/>
<path opacity="0.2" d="M490.21 537.03L490.46 537.11C489.31 543.23 481.22 545.85 481.22 545.85L481.08 545.74C482.03 545.4 489.14 542.74 490.21 537.03Z" fill="white"/>
<g opacity="0.2">
<path opacity="0.2" d="M479.08 555.35L477.51 563.35H477.86L479.38 555.57C479.284 555.492 479.184 555.418 479.08 555.35V555.35Z" fill="white"/>
<path opacity="0.2" d="M481.33 552.56H480.98C482.989 555.737 483.771 559.538 483.18 563.25V563.37H483.5V563.25C484.1 559.541 483.328 555.741 481.33 552.56V552.56Z" fill="white"/>
</g>
<path opacity="0.2" d="M490.32 536.93C490.32 536.93 490.95 536.67 490.68 535.76C490.648 535.632 490.586 535.514 490.499 535.414C490.412 535.315 490.303 535.238 490.18 535.19C490.339 535.219 490.487 535.293 490.605 535.402C490.724 535.512 490.809 535.654 490.85 535.81C491.12 536.71 490.49 536.98 490.49 536.98C490.151 536.953 489.815 536.889 489.49 536.79C489.762 536.859 490.04 536.906 490.32 536.93V536.93Z" fill="white"/>
<path d="M477.04 552.44L473.76 559.36C475.677 559.455 477.585 559.685 479.47 560.05C483.1 560.74 484.83 559.05 484.83 559.05L482.5 552.44H477.04Z" fill="#263238"/>
<path d="M477.91 563.33C477.91 563.33 479.64 563.68 479.29 564.33H476.18L476.35 563.33H477.91Z" fill="#FF5252"/>
<path d="M483.44 563.33C483.44 563.33 485.17 563.68 484.82 564.33H481.71L481.88 563.33H483.44Z" fill="#FF5252"/>
<path d="M482.23 537.05C482.23 537.05 478.08 542.93 479.98 545.35L472.55 545.18C472.55 545.18 474.62 531.86 482.23 537.05Z" fill="#FCCC63"/>
<path opacity="0.2" d="M482.23 537.05C481.378 536.419 480.38 536.013 479.33 535.87C480.044 536.099 480.718 536.436 481.33 536.87C481.33 536.87 477.18 542.75 479.08 545.17L472.54 545.02V545.17L479.97 545.34C478.08 542.93 482.23 537.05 482.23 537.05Z" fill="white"/>
<path opacity="0.2" d="M482.5 552.44H481.98L484.32 559.01C483.352 559.805 482.133 560.231 480.88 560.21C482.319 560.351 483.756 559.92 484.88 559.01L482.5 552.44Z" fill="white"/>
<path opacity="0.2" d="M477.91 563.33H477.56C477.56 563.33 479.29 563.68 478.94 564.33H479.29C479.64 563.67 477.91 563.33 477.91 563.33Z" fill="white"/>
<path opacity="0.2" d="M483.44 563.33H483.09C483.09 563.33 484.82 563.68 484.47 564.33H484.82C485.17 563.67 483.44 563.33 483.44 563.33Z" fill="white"/>
<path d="M696.26 547.93L686.62 494.09L717.15 492.6V547.93H738.04L758.93 488.47" stroke="#B3B3B3" stroke-miterlimit="10"/>
<path d="M731.63 542.3H702.67C687.593 542.3 675.37 554.523 675.37 569.6V574.46C675.37 589.537 687.593 601.76 702.67 601.76H731.63C746.707 601.76 758.93 589.537 758.93 574.46V569.6C758.93 554.523 746.707 542.3 731.63 542.3Z" fill="#6C63FF"/>
<path opacity="0.05" d="M730.01 542.3H705.91C698.032 542.324 690.484 545.464 684.914 551.034C679.344 556.604 676.204 564.152 676.18 572.03V572.03C676.18 572.71 676.18 573.37 676.26 574.03C676.79 566.52 680.141 559.489 685.641 554.347C691.14 549.205 698.381 546.334 705.91 546.31H730.01C737.539 546.334 744.779 549.205 750.279 554.347C755.779 559.489 759.13 566.52 759.66 574.03C759.66 573.37 759.74 572.7 759.74 572.03C759.716 564.152 756.576 556.604 751.006 551.034C745.436 545.464 737.888 542.324 730.01 542.3V542.3Z" fill="black"/>
<path d="M843.91 381.39C843.91 450.05 786.55 505.71 725.48 505.71C664.41 505.71 601.82 450.05 601.82 381.39C601.82 312.73 664.41 257.07 725.49 257.07C786.57 257.07 843.91 312.73 843.91 381.39Z" fill="url(#paint4_linear)"/>
<path d="M838.24 381.39C838.24 446.84 783.57 499.89 725.35 499.89C667.13 499.89 607.47 446.84 607.47 381.39C607.47 315.94 667.15 262.93 725.36 262.93C783.57 262.93 838.24 315.93 838.24 381.39Z" fill="#6C63FF"/>
<path d="M733.46 504.05H707.27V513.2H733.46V504.05Z" fill="#6C63FF"/>
<g opacity="0.2">
<path opacity="0.2" d="M725.36 262.48C723.97 262.48 722.59 262.48 721.2 262.58C777.83 265.03 829.93 317.09 829.93 380.98C829.93 444.87 777.83 496.93 721.24 499.38C722.63 499.44 724.02 499.48 725.4 499.48C783.61 499.48 838.29 446.43 838.29 380.98C838.29 315.53 783.57 262.48 725.36 262.48Z" fill="black"/>
</g>
<g opacity="0.2">
<path opacity="0.2" d="M614.14 381.39C614.14 316.88 672.14 264.39 729.52 262.93C728.69 262.93 727.86 262.93 727.03 262.93C668.82 262.93 609.15 315.98 609.15 381.43C609.15 446.88 668.81 499.93 727.02 499.93C727.85 499.93 728.68 499.93 729.51 499.93C672.11 498.37 614.14 445.93 614.14 381.39Z" fill="white"/>
</g>
<path d="M759.25 483.26H683.99V507.79H759.25V483.26Z" fill="#6C63FF"/>
<path opacity="0.2" d="M683.99 271.52C683.99 271.52 594.6 373.7 683.99 491.26L713.51 491.16C713.51 491.16 632.02 394.04 709.77 264.16L695.24 267.47L683.99 271.52Z" fill="white"/>
<path opacity="0.2" d="M761.74 269.93C761.74 269.93 851.13 373.67 761.74 491.23L732.22 491.13C732.22 491.13 813.71 393.13 735.96 263.28L750.51 266.19L761.74 269.93Z" fill="white"/>
</g>
<defs>
<linearGradient id="paint0_linear" x1="441.5" y1="709.45" x2="441.5" y2="536.39" gradientUnits="userSpaceOnUse">
<stop stop-color="#808080" stop-opacity="0.25"/>
<stop offset="0.54" stop-color="#808080" stop-opacity="0.12"/>
<stop offset="1" stop-color="#808080" stop-opacity="0.1"/>
</linearGradient>
<linearGradient id="paint1_linear" x1="32428.7" y1="26488.3" x2="32428.7" y2="147" gradientUnits="userSpaceOnUse">
<stop stop-color="#808080" stop-opacity="0.25"/>
<stop offset="0.54" stop-color="#808080" stop-opacity="0.12"/>
<stop offset="1" stop-color="#808080" stop-opacity="0.1"/>
</linearGradient>
<linearGradient id="paint2_linear" x1="2531.6" y1="549.607" x2="2531.6" y2="549.606" gradientUnits="userSpaceOnUse">
<stop stop-color="#808080" stop-opacity="0.25"/>
<stop offset="0.54" stop-color="#808080" stop-opacity="0.12"/>
<stop offset="1" stop-color="#808080" stop-opacity="0.1"/>
</linearGradient>
<linearGradient id="paint3_linear" x1="-34745.1" y1="20357.9" x2="-34745.1" y2="19466.8" gradientUnits="userSpaceOnUse">
<stop stop-color="#808080" stop-opacity="0.25"/>
<stop offset="0.54" stop-color="#808080" stop-opacity="0.12"/>
<stop offset="1" stop-color="#808080" stop-opacity="0.1"/>
</linearGradient>
<linearGradient id="paint4_linear" x1="221056" y1="112836" x2="221056" y2="51014.4" gradientUnits="userSpaceOnUse">
<stop stop-color="#808080" stop-opacity="0.25"/>
<stop offset="0.54" stop-color="#808080" stop-opacity="0.12"/>
<stop offset="1" stop-color="#808080" stop-opacity="0.1"/>
</linearGradient>
<clipPath id="clip0">
<rect width="883" height="711.86" fill="white"/>
</clipPath>
</defs>
</svg>
